<svg xmlns="http://www.w3.org/2000/svg" viewBox="0 0 807.91 570.09"><defs><style>.cls-1{fill:none;}.cls-2{fill:#2a588e;}.cls-3{fill:#c5ebe4;}</style></defs><g id="Layer_2" data-name="Layer 2"><g id="Layer_1-2" data-name="Layer 1"><g id="Layer_2-2" data-name="Layer 2"><g id="Layer_1-2-2" data-name="Layer 1-2"><path class="cls-1" d="M559.37,29.22v14c-.11,3,.67,4.35,4,4.35,17.77.72,35.54,1.67,53.25,2.62,21,1.17,41.84,2.51,62.56,3.62,19.34,1.06,38.61,2,57.94,3.12,3.68.22,5.57-.39,5.57-4.85V25.43c.06-3.73-1.61-4.4-4.84-4.4-12-.39-24-1-36-1.56Q634,15.8,566.12,11.83c-4.91-.27-7.53.34-6.75,6.24A74.11,74.11,0,0,1,559.37,29.22Z"/><path class="cls-1" d="M620.49,140.63c21.45,2,43,3.68,64.4,5.58a4.13,4.13,0,0,0,4.18-2.57l51.14-79.1-11.15-.67c-13.14-.67-26.23-1.12-39.33-1.84L561.6,54.9A5.58,5.58,0,0,0,556,57c-18.44,24.12-37,48.19-56.38,73.42,22.79,1.9,44.57,3.4,65.74,5.41C583.78,137.35,602.1,139,620.49,140.63Z"/><path class="cls-1" d="M605.78,419.68c25.46,2.51,50.86,5.07,76.32,7.52,1.73.17,5.07,1.73,5.07-1h0c.22-2.73,2.29-6.85-1.67-8.41s-8.69,4.4-12.31-1.17c-16.21-2.73-32.65-3.51-49-5.24-20.55-2.23-40.72-4.4-61.28-6.13-11-.92-22-1.93-33-2.94a36,36,0,0,0,2.18,10.41l14,1.39Z"/><path class="cls-1" d="M532.17,430.35q-.87-3.21-1.77-6.47l-3.4-.34A16.85,16.85,0,0,0,532.17,430.35Z"/><path class="cls-1" d="M620.54,250.33c19.72,1.5,39.5,3,59.22,4.34,2.06.11,5.57,1.5,5.57-3.12.17-3.73-1.39-5.12-5-5.12-10.86-.73-21.67-1.79-32.53-2.68L574,237.57c-24.54-2-49-4-73.52-6.22,1.2,1.15,2.4,2.3,3.58,3.47,2.32,2.32,4.59,4.69,6.83,7.08q23.12,1.54,46.18,3.3Z"/><path class="cls-1" d="M526.53,409.84h0a22.53,22.53,0,0,0-.57,2.29l1.25.12Z"/><path class="cls-1" d="M29.53,449.15q2.25,7.5,4.51,15l1.63-.49-4.44-15Z"/><path class="cls-1" d="M21.86,413.16c3.08,2.67-2.93,6.48,1.7,10.12.5-2.64,1.25-4.48,1.1-6.23C24.42,414.17,23.77,413.4,21.86,413.16Z"/><path class="cls-1" d="M378.23,350.69c-24.27,1.17-48.49,3.35-72.74,5-3,.19-4,1.47-5.21,4.12-1.71,3.82-3.87,8-7.07,10.49-11.24,8.54-24.52,10.59-38.29,9.89-2-.1-3.83-1.43-5.75-2.19l.33-2c4.87-.55,9.74-1.29,14.62-1.6,8.76-.55,17.21-2.13,24.67-7,8.59-5.62,9.73-15.75,2.45-23A25.27,25.27,0,0,0,283,339c-13.28-5.34-26.49-3.86-39.29,1.66-8,3.44-11.58,9.47-11,17.31.64,8,4.28,13.89,12.42,16.27a7.56,7.56,0,0,1,1.64,1.15c-7.54.51-12.85-2.26-15.8-8.7-1.39-3-3-3.57-6.09-3.22-11.4,1.31-22.85,2.26-34.27,3.36-17.56,1.69-35.12,3.32-52.66,5.1q-33,3.36-66,6.93c-15.33,1.5-30.69,3.2-46.73,4.94h0c1.48,5.57,3,10.32,4,15.17,8.81,43,17.46,86,26.3,129,2.58,12.39,5.71,24.76,15,34.23a8.59,8.59,0,0,0,6.31,2.16c10.08-1.12,20.1-2.76,30.15-4.1,3.4-.45,5.34-1.62,6.58-5.34,5.07-15.24,27.36-19.3,37.85-7.25a6.16,6.16,0,0,0,4.54,1.72c24.22-2,48.4-4.21,72.62-6.11,31-2.43,62.08-4.6,93.12-6.89,31.22-2.3,62.42-4.68,93.65-6.83,3-.21,4.05-1.7,5.72-3.69,3-3.62,6.35-7.46,10.37-9.72,10.17-5.7,25.24-2.64,34.51,6.49a7.37,7.37,0,0,0,7,2.3c3.49-.46,7-.72,10.52-1V461.63q0-57.56-.12-115.18C448.25,347.48,413.23,349,378.23,350.69ZM147,463.53c-15.75,11.84-39.43,7.2-47.9-9.66a22,22,0,0,1,9.39-29.17c.81-.42,1.8-.48,3.72.15-1.39,2-2.49,4.31-4.22,5.93-10.68,10-7.87,24.36,6,29.62,4.66,1.77,9.31,3.93,14.16,4.77,4.42.76,9.42.76,11.87-4.6h-.22c10.14-4.62,11-14.09,2.1-21.31-1.47-1.21-1.62-3.95-3-5.4-2.63-2.76-5.69-5.11-8.56-7.63l-.94-.69-13.23-7a18.58,18.58,0,0,1,3.93-.45c14,1.76,29.4,16,32.36,29.82C153.8,454.37,152,459.75,147,463.53Zm171.12,10.73c-7.47,8.12-17.33,10-27.78,9.9-8-.06-15.5-2.13-21.87-7.19-5.36-4.3-5.56-8.56,0-13.48,1.45,6,3.44,11.35,9.47,12.91,10.65,2.75,21.29,2.65,31.63-1.56,1-.42,1.66-1.87,2.52-2.79,3.65-3.93,7.32-7.92,5.7-13.88-.42-1.54-.38-5.55-4.28-2.11-.3-6.46-5.82-6.25-9.25-5.8-10.3,1.34-20.46,3.79-30.63,6-2.19.48-4.22,1.7-7.1,1.78a24.53,24.53,0,0,1,3.34-3.57c11.73-8.57,25.06-11.93,39.21-9.62,14.78,2.42,19.37,18.19,9,29.41ZM480.5,453.8c-5.17,12.3-14.71,20.78-26.63,25.82-22,9.32-43.65,7.89-63.72-5.6-12.93-8.7-15-21-6.74-34.3,7.77-12.47,19.7-20.05,31.93-27.27,2.61-1.54,5.4-2.77,8.11-4.15l1.17,1.7-10,8.05c16.92-8,33.84-6,50.48,0C480.51,423.55,486.84,438.71,480.5,453.8Z"/><path class="cls-1" d="M694.75,226.76c0,1.73-.45,3.45-.45,5.18,1.78,1.9,3.4.17,4.79-.44,31-14.15,61.84-28.14,92.81-42a6.35,6.35,0,0,0,4.24-7V125.7a11.7,11.7,0,0,0-2.95-8.35c-10-11.37-19.73-23-29.53-34.49L748.51,65.15,744,72.5l-49.64,81.84Q694.75,190.61,694.75,226.76Z"/><path class="cls-1" d="M465.17,425a66,66,0,0,0-34.71-6.59c-1.18.1-2.28,1.19-3.93,2.11-7.16-2.65-14.64,1.74-20.4,5-7.51,4.27-13.38,12.05-18.8,19.2s-4.27,14.18,2.09,20.1a49.89,49.89,0,0,0,13.27,8.9c15.24,6.8,30.92,6.92,46.55,1.22,2.12-.77,3.93-4.47,5.52-4.24,6.46.91,8.64-4.59,12.11-7.61a14.63,14.63,0,0,0,4.64-9.67c.06-3.53-.5-6,3.87-5.61C476.71,434.66,474.52,429.58,465.17,425Z"/><path class="cls-1" d="M129.21,367.63c31.8-3.24,63.62-6.29,95.43-9.35,2.89-.28,4.44-1.11,4.58-4.46.29-6.78,3.78-11.88,9.43-15.57a48,48,0,0,1,26-7.72c15.17-.24,28.46,3.51,35.6,18.82.39.83,2.42,1.37,3.63,1.27C322,349.17,340,347.44,358.13,346c30.88-2.35,61.76-4.89,92.67-6.6,10.81-.59,21.63-.9,32.46-1.15q-.08-58.6-.18-117.26c-8.54-7-17.33-13.62-25.85-20.59-17.65-14.45-36.18-27.82-53.89-42.19-5.95-4.83-11.61-5.88-18.29-3.08q-45,19.23-89.82,38.69c-1.12.48-2.1,2.36-2.3,3.71-1.57,10.46-5.86,19.62-15.69,24a249.78,249.78,0,0,1-33.72,11.88c-3.58,1-9,.35-11.88-1.78-5.51-4-9.63-2.23-14.32.59-2.56,1.55-5.28,2.84-7.93,4.23-52.08,27.39-101.88,58.52-150,92.28C43.45,340,27.75,351.52,11.78,363h0c1.63,4.72,2.7,8.95,4.59,12.77a6.68,6.68,0,0,0,5.09,3.1c6-.2,11.91-1.11,17.87-1.75C69.32,374,99.23,370.68,129.21,367.63Zm284-72c5.94-7.89,17.3-12.55,25.45-10.39a7.18,7.18,0,0,1,1.46.68c-5.29,2.23-10.79,3.92-15.6,6.78-3.26,2-5.87,5.3-8.15,8.47s-.72,6.17,2.78,6.85c14.18,2.77,28.2,2.93,41.08-5,4.17-2.57,4.06-4.63,0-7.33-2.07-1.39-4.24-2.61-6.34-4-.19-.11-.22-.54-.77-2,4.36,1.73,8.15,2.85,11.56,4.68,4.77,2.56,5.4,6.93,1.34,10.55a32.82,32.82,0,0,1-10,6.33,62.46,62.46,0,0,1-36.81,2.23c-9.66-2.24-12-9.92-6-17.81ZM374,236.85c1.87.68,4.08,2.66,4.51,4.44.33,1.41-1.44,3.93-2.94,5.06a16.73,16.73,0,0,1-17.31,2.1l16.41-5.52c-3.62-4-7.36-3.28-10.89-1.6s-6.55,3.75-10.09,5.82c3.26-7.52,13.42-12.74,20.29-10.26ZM148.27,289c7.19-7.31,15.3-13.34,25.36-16.17a52.84,52.84,0,0,1,7.2-1c-9.94,2.68-17.07,9.59-24.77,15.47a23.42,23.42,0,0,0-5,5.51c-3.91,5.87-2.63,10.64,4.12,12.09a55.32,55.32,0,0,0,18.59.91,97.57,97.57,0,0,0,38.3-13.39,44.09,44.09,0,0,0,10.24-8.62c4.86-5.56,3.31-11-3.57-13.77-2.28-.93-4.82-1.15-7.22-1.85s-4.46-1.51-6.69-2.28l.06-1.71c2.43-.53,5.16-2,7.24-1.41,4.94,1.49,10.37,3,14.17,6.28,7.23,6.16,5.89,15.19-2.66,22.2-11.28,9.25-24.56,14.49-38.57,17.93-9.56,2.35-19.24,4-29.13,2.07-5.1-1-9.76-2.72-11.61-8.15S144.45,292.93,148.27,289Z"/><path class="cls-1" d="M789.34,371.44q-43.79,21.39-87.57,42.67c-1.73.84-4,4.23-5.91,0,.28-8,.28-16,.28-24.07-.45-21.67-.45-43.34-.45-65-.22-2.23-.61-4.4-.61-6.63-.5-19.11-.5-38.27-.5-57.43,0-4.46-1.56-5.24-5.57-4.85s-2.34,3.56-2.34,5.57c-.22,26.29,1.67,52.53.89,78.77.17,21.73.45,43.4.45,65.13a36.59,36.59,0,0,1,.67,6.35c-.56,4.62,1.56,5.68,5.57,4.62a2.86,2.86,0,0,1,1.28-2.67h.33c-.72.78-.17,2.11-1.28,2.67h-.33c.55.67,1.56,1.34,1.56,2-.67,7.63,2.5,6.3,7.46,3.84,29-14.48,58.22-28.85,87.3-42.89a9.25,9.25,0,0,0,1-.37,7.75,7.75,0,0,0,3.81-10.27C793.35,369.71,791.29,370.49,789.34,371.44Z"/><path class="cls-1" d="M796,206.2c1-5.18-1.06-5.23-5.29-3.51C768.28,213,745.61,223,723.33,233.17c-8.47,3.84-16.94,7.85-25.46,11.58-4.24,1.84-3,5.52-2.23,8,1.11,4.23,3.73.61,5.07,0,30.47-13.15,60.78-27.13,91.42-40.89,2.67-1,4.84-2.07,4-5.57Z"/><path class="cls-1" d="M16.51,395.15c-1.36,2.66,1.32,16.71,3.59,18.68l1-1.05c-.85-6.34-1.71-12.7-2.68-20A18.87,18.87,0,0,0,16.51,395.15Z"/><polygon class="cls-1" points="14.12 383.77 12.59 393.12 14.48 393.5 16.32 384.18 14.12 383.77"/><path class="cls-1" d="M499.65,220c15.44,1.11,31.15,2.84,47.36,3.84l129.52,10.58c8.8.73,8.8.78,8.8-7.8v-8L685,165.59a10.83,10.83,0,0,1-.61-2.51c1.61-7.74-2.9-9.08-9.2-9.58-27.46-2.06-54.87-4.45-82.33-6.74l-93.71-7.85c-2.89-.23-4.4-.11-4.4,3.56h-.28q.28,36.38.56,72.81C495,218.74,496.26,219.8,499.65,220Z"/><path class="cls-1" d="M500.27,409.76q10.05.86,20.1,1.83a57.69,57.69,0,0,1,2-10q-10.61-1-21.23-1.94c-2.23-.17-6.13-2.51-6.13,3.07C494.7,406.81,495.37,409.37,500.27,409.76Z"/><path class="cls-1" d="M520.93,519.77c3.52-26.38,7.14-52.74,10.52-79.12.19-1.48-1-3.63-2.21-4.73a27.26,27.26,0,0,1-8.41-13L501.6,421c-4.79-.61-6.46,0-6.46,5.57q.45,45.34,0,90.81c0,2.85.52,4.56,1.84,5.59l23.36-2A4.59,4.59,0,0,0,520.93,519.77Z"/><path class="cls-1" d="M499.26,241.13l6.36.42c-3.21-3.4-6.56-6.64-10-9.77-.92.64-1.14,1.84-.69,3.78C494.36,239,495.2,241.13,499.26,241.13Z"/><path class="cls-1" d="M687.78,444.47c0-2.9-.11-4.73-4.06-5.12-25.41-2.18-50.81-5.18-76.27-7.75q-35.81-3.63-71.91-7.21c1.77,10.26.18,20.32-1.38,30.76-3.33,22.36-5.52,44.89-8.2,67.35-.1.81-.25,1.61-.45,2.88l-7,.59c17.22,1.75,34.42,3.61,51.62,5.41l57.66,6.13c18.6,2,37.15,3.84,55.7,6,4.57.55,5.58-1,5.58-5.57V491.82h-1.29Z"/><path class="cls-1" d="M796,389.65c-3,1.34-5.24,2.29-7.36,3.35-26.51,13.2-52.75,26.74-79.55,39a18.67,18.67,0,0,0-12.81,20.84c.94,29.3.33,58.6.33,87.91h2.06l94.43-52.59H793a5.56,5.56,0,0,0,3-5.42Z"/><path class="cls-2" d="M465.1,418c-16.64-6-33.56-8-50.48,0l10-8.05-1.17-1.7c-2.71,1.38-5.5,2.61-8.11,4.15-12.23,7.22-24.16,14.8-31.93,27.27-8.26,13.3-6.19,25.6,6.74,34.3,20.07,13.49,41.72,14.92,63.72,5.6,11.92-5,21.46-13.52,26.63-25.82C486.84,438.71,480.51,423.55,465.1,418Zm10.28,29.73c-4.37-.34-3.81,2.08-3.87,5.61a14.63,14.63,0,0,1-4.64,9.67c-3.47,3-5.65,8.52-12.11,7.61-1.59-.23-3.4,3.47-5.52,4.24-15.63,5.7-31.31,5.58-46.55-1.22a49.89,49.89,0,0,1-13.27-8.9c-6.36-5.92-7.51-12.95-2.09-20.1s11.29-14.93,18.8-19.2c5.76-3.26,13.24-7.65,20.4-5,1.65-.92,2.75-2,3.93-2.11A66,66,0,0,1,465.17,425c9.35,4.62,11.54,9.7,10.21,22.82Z"/><path class="cls-2" d="M309.09,444.85c-14.15-2.31-27.48,1-39.21,9.62a24.53,24.53,0,0,0-3.34,3.57c2.88-.08,4.91-1.3,7.1-1.78,10.17-2.21,20.33-4.66,30.63-6,3.43-.45,9-.66,9.25,5.8,3.9-3.44,3.86.57,4.28,2.11,1.62,6-2.05,9.95-5.7,13.88-.86.92-1.52,2.37-2.52,2.79-10.34,4.21-21,4.31-31.63,1.56-6-1.56-8-6.91-9.47-12.91-5.6,4.92-5.4,9.18,0,13.48,6.37,5.06,13.87,7.13,21.87,7.19,10.45.1,20.31-1.78,27.78-9.9C328.45,463,323.86,447.27,309.09,444.85Z"/><path class="cls-2" d="M120.07,418.16a18.58,18.58,0,0,0-3.93.45l13.23,6.95.94.69c2.87,2.52,5.93,4.87,8.56,7.63,1.38,1.45,1.53,4.19,3,5.4,8.9,7.22,8,16.69-2.1,21.31H140c-2.45,5.36-7.45,5.36-11.87,4.6-4.85-.84-9.5-3-14.16-4.77-13.87-5.26-16.68-19.62-6-29.62,1.73-1.62,2.83-3.93,4.22-5.93-1.92-.63-2.91-.57-3.72-.15a22,22,0,0,0-9.39,29.17c8.47,16.86,32.15,21.5,47.9,9.66,5-3.78,6.83-9.16,5.46-15.55C149.47,434.16,134.07,419.92,120.07,418.16Z"/><path class="cls-2" d="M155.94,311.31c9.89,1.93,19.57.28,29.13-2.07,14-3.44,27.29-8.68,38.57-17.93,8.55-7,9.89-16,2.66-22.2-3.8-3.23-9.23-4.79-14.17-6.28-2.08-.59-4.81.88-7.24,1.41l-.06,1.71c2.23.77,4.3,1.58,6.69,2.28s4.94.92,7.22,1.85c6.88,2.77,8.43,8.21,3.57,13.77a44.09,44.09,0,0,1-10.24,8.62,97.57,97.57,0,0,1-38.3,13.39,55.32,55.32,0,0,1-18.59-.91c-6.75-1.45-8-6.22-4.12-12.09a23.42,23.42,0,0,1,5-5.51c7.7-5.88,14.83-12.79,24.77-15.47a52.84,52.84,0,0,0-7.2,1c-10.06,2.83-18.17,8.86-25.36,16.17-3.82,3.88-5.79,8.68-3.94,14.11S150.84,310.31,155.94,311.31Z"/><path class="cls-2" d="M419.19,313.56A62.46,62.46,0,0,0,456,311.33,33.14,33.14,0,0,0,466,305c4.06-3.62,3.43-8-1.34-10.55-3.41-1.83-7.2-3-11.56-4.68.55,1.42.58,1.85.77,2,2.1,1.39,4.27,2.61,6.34,4,4.06,2.7,4.17,4.76,0,7.33-12.88,7.93-26.9,7.77-41.08,5-3.5-.68-5.06-3.68-2.78-6.85s4.89-6.47,8.15-8.47c4.81-2.86,10.31-4.55,15.6-6.78a7.18,7.18,0,0,0-1.46-.68c-8.15-2.16-19.51,2.5-25.45,10.39S409.55,311.24,419.19,313.56Z"/><path class="cls-2" d="M374.61,243l-16.41,5.52a16.73,16.73,0,0,0,17.31-2.1c1.5-1.13,3.27-3.65,2.94-5.06-.43-1.78-2.64-3.76-4.51-4.44-6.87-2.48-17,2.74-20.31,10.3,3.54-2.07,6.56-4.14,10.09-5.82S371,239,374.61,243Z"/><path class="cls-2" d="M803.27,111.5c-13.76-15.77-27-32-40.89-47.63a24.87,24.87,0,0,1-7.24-18.39c.33-8.63-.51-17.32-.73-26a8.36,8.36,0,0,0-7.27-9.32,8.45,8.45,0,0,0-1.59,0L648.23,4.93C618.43,3.31,588.79,1.81,558.87,0c-7.41-.39-10.41,2-10.47,9.3V42.81a14,14,0,0,1-3.4,9.64c-19.33,24.73-38.44,49.63-57.82,74.31a18.15,18.15,0,0,0-4.24,12.15q.07,38.31.13,76.59c-8-7-16.13-13.78-24-20.86-16.77-15-34.21-29.08-53.16-41.39-7.44-4.86-14.24-5.5-22-2.78-1.73.61-3.48,1.16-5.16,1.88-18.06,7.69-36.16,15.28-54.16,23.16-13.53,5.93-26.9,12.24-40.19,18.31,1.61,16.42-1.2,21.25-16.77,27.42-7.09,2.81-14.52,4.76-21.78,7.15a15.46,15.46,0,0,1-16.59-3.75c-2.13-2.08-3.61-2-6-.71-12.88,6.9-26,13.52-38.88,20.46C121.64,278.12,60.88,314.9,3.58,357.18c-3.25,2.4-4.27,4.36-3.13,8.51,16.47,59.8,33.07,119.57,53.87,178.12,3.1,8.74,7.27,16.76,13.88,23.41,2.24,2.26,4.36,3.47,7.89,2.57,5-1.27,10.17-1.66,15.28-2.4l25.44-3.7c1.1-10.14,5.62-16.1,12.82-17.27,8.23-1.34,14.39,2.87,19.08,13.37a15.55,15.55,0,0,0,2.63-.28c34.46-3.47,68.91-7.14,103.4-10.39q80.34-7.5,160.73-14.57c4.67-.41,8.28-.77,9.67-6.12.5-1.86,2.35-3.58,3.93-5,9.16-8.23,25.59-6.42,34.45,4A6.64,6.64,0,0,0,470.3,530c4.51-.55,9.07-.89,13.63-1.22,1,3.29,3.37,5.27,8.15,5.83,10.14,1.12,20.17,3.07,30.25,4.74,56,9.36,112,18.77,168.13,27.85,6.07,1,12.37,4.18,18.77.39l96.82-57,1.45-.84V436.34h.39v-312A17.66,17.66,0,0,0,803.27,111.5ZM12.59,393.12l1.53-9.35,2.2.41-1.84,9.32Zm7.51,20.71c-2.27-2-5-16-3.59-18.68a19.75,19.75,0,0,1,1.94-2.34c1,7.27,1.83,13.63,2.68,20Zm-3.74-38.05c-1.89-3.82-3-8-4.59-12.77h0c16-11.49,31.67-23,47.61-34.22,48.12-33.76,97.92-64.89,150-92.28,2.65-1.39,5.37-2.68,7.93-4.23,4.69-2.82,8.81-4.59,14.32-.59,2.93,2.13,8.3,2.78,11.88,1.78a249.78,249.78,0,0,0,33.72-11.88c9.83-4.38,14.12-13.54,15.69-24,.2-1.35,1.18-3.23,2.3-3.71Q340,174.43,385,155.19c6.68-2.8,12.34-1.75,18.29,3.08C421,172.64,439.57,186,457.22,200.46c8.52,7,17.31,13.63,25.85,20.59q.1,58.65.18,117.26c-10.83.25-21.65.56-32.46,1.15-30.91,1.71-61.79,4.25-92.67,6.6-18.09,1.38-36.16,3.11-54.25,4.56-1.21.1-3.24-.44-3.63-1.27-7.14-15.31-20.43-19.06-35.6-18.82a48,48,0,0,0-26,7.72c-5.65,3.69-9.14,8.79-9.43,15.57-.14,3.35-1.69,4.18-4.58,4.46-31.81,3.06-63.63,6.11-95.43,9.35-30,3.05-59.89,6.32-89.89,9.5-6,.64-11.87,1.55-17.87,1.75A6.67,6.67,0,0,1,16.36,375.78Zm7.2,47.5c-4.63-3.64,1.38-7.45-1.7-10.12,1.91.24,2.56,1,2.8,3.89C24.81,418.8,24.06,420.64,23.56,423.28ZM34,464.15q-2.26-7.5-4.51-15l1.7-.52,4.44,15ZM483.39,524c-3.52.24-7,.5-10.52,1a7.37,7.37,0,0,1-7-2.3c-9.27-9.13-24.34-12.19-34.51-6.49-4,2.26-7.37,6.1-10.37,9.72-1.67,2-2.72,3.48-5.72,3.69-31.23,2.15-62.43,4.53-93.65,6.83-31,2.29-62.12,4.46-93.12,6.89-24.22,1.9-48.4,4.11-72.62,6.11a6.17,6.17,0,0,1-4.54-1.72c-10.49-12-32.78-8-37.85,7.25-1.24,3.72-3.18,4.89-6.58,5.34-10,1.34-20.07,3-30.15,4.1a8.59,8.59,0,0,1-6.31-2.16c-9.27-9.47-12.4-21.84-15-34.23C46.63,485,38,442,29.17,399c-1-4.85-2.52-9.6-4-15.17h0c16-1.74,31.4-3.44,46.73-4.94q33-3.57,66-6.93c17.54-1.78,35.1-3.41,52.66-5.1,11.42-1.1,22.87-2,34.27-3.36,3.09-.35,4.7.22,6.09,3.22,3,6.44,8.26,9.21,15.8,8.7a7.56,7.56,0,0,0-1.64-1.15C237,371.89,233.31,366,232.67,358c-.58-7.84,3-13.87,11-17.31,12.8-5.52,26-7,39.29-1.66a25.2,25.2,0,0,1,8.28,5.37c7.28,7.25,6.14,17.38-2.45,23-7.46,4.87-15.91,6.45-24.67,7-4.88.31-9.75,1.05-14.62,1.6l-.33,2c1.92.76,3.75,2.09,5.75,2.19,13.77.7,27.05-1.35,38.29-9.89,3.2-2.49,5.36-6.67,7.07-10.49,1.21-2.65,2.21-3.93,5.21-4.12,24.25-1.65,48.47-3.83,72.74-5,35-1.68,70-3.21,105-4.24l.12,115.18ZM748.51,65.15l15.15,17.71c9.8,11.54,19.55,23.12,29.53,34.49a11.7,11.7,0,0,1,2.95,8.35v56.77a6.35,6.35,0,0,1-4.24,7c-31,13.87-61.83,27.86-92.81,42-1.39.61-3,2.34-4.79.44,0-1.73.45-3.45.45-5.18q0-36.15-.39-72.42L744,72.5ZM566.12,11.83q67.85,4,135.76,7.64c12,.61,24,1.17,36,1.56,3.23,0,4.9.67,4.84,4.4V52.11c0,4.46-1.89,5.07-5.57,4.85-19.33-1.11-38.6-2.06-57.94-3.12-20.72-1.11-41.55-2.45-62.56-3.62q-26.56-1.5-53.25-2.62c-3.35,0-4.13-1.39-4-4.35v-14a74.11,74.11,0,0,0,0-11.15C558.59,12.17,561.21,11.56,566.12,11.83ZM556,57a5.58,5.58,0,0,1,5.57-2.06L689.73,62c13.1.72,26.19,1.17,39.33,1.84l11.15.67-51.14,79.1a4.13,4.13,0,0,1-4.18,2.57c-21.45-1.9-42.95-3.63-64.4-5.58-18.39-1.56-36.71-3.28-55.1-4.84-21.17-2-42.95-3.51-65.74-5.41C519,105.15,537.59,81,556,57ZM526.52,409.84h0l.67,2.41-1.25-.12A20.2,20.2,0,0,1,526.52,409.84ZM511,241.9c-2.24-2.39-4.51-4.76-6.83-7.08-1.18-1.17-2.38-2.32-3.58-3.47,24.49,2.25,49,4.18,73.52,6.22l73.76,6.18c10.86.89,21.67,1.95,32.53,2.68,3.57,0,5.13,1.39,5,5.12,0,4.62-3.51,3.23-5.57,3.12-19.72-1.39-39.5-2.84-59.22-4.34l-63.39-5.13Q534.07,243.46,511,241.9Zm19.43,182q.9,3.25,1.77,6.47a16.92,16.92,0,0,1-5.2-6.83Zm1.65-11.16a36,36,0,0,1-2.18-10.41c11,1,22,2,33,2.94,20.56,1.73,40.73,3.9,61.28,6.13,16.38,1.73,32.82,2.51,49,5.24,3.62,5.57,8.35-.39,12.31,1.17s1.89,5.68,1.67,8.41h0c0,2.68-3.34,1.12-5.07,1q-38.19-3.68-76.32-7.52l-59.72-5.57Zm-37.3-270.25c0-3.67,1.51-3.79,4.4-3.56l93.71,7.85c27.46,2.29,54.87,4.68,82.33,6.74,6.3.5,10.81,1.84,9.2,9.58a10.83,10.83,0,0,0,.61,2.51l.33,53.15v8c0,8.58,0,8.53-8.8,7.8L547,223.92c-16.21-1-31.92-2.73-47.36-3.84-3.39-.28-4.62-1.34-4.62-4.8q-.27-36.42-.56-72.81Zm.86,89.31c3.45,3.13,6.8,6.37,10,9.77l-6.36-.42c-4.06,0-4.9-2.17-4.34-5.57-.47-2-.25-3.16.67-3.8Zm-.58,171c0-5.58,3.9-3.24,6.13-3.07q10.62.94,21.23,1.94a57.69,57.69,0,0,0-2,10q-10-1-20.1-1.83c-4.95-.47-5.62-3-5.32-7.09Zm.11,114.59q.45-45.47,0-90.81c0-5.57,1.67-6.18,6.46-5.57L520.86,423a27.26,27.26,0,0,0,8.41,13c1.21,1.1,2.4,3.25,2.21,4.73-3.38,26.38-7,52.74-10.52,79.12a4.7,4.7,0,0,1-.59,1.16L497,523c-1.35-1.07-1.87-2.78-1.87-5.63ZM689.1,538c0,4.62-1,6.12-5.58,5.57-18.55-2.12-37.1-4-55.7-6l-57.66-6.13c-17.2-1.8-34.4-3.66-51.62-5.41l7-.59c.2-1.27.35-2.07.45-2.88,2.68-22.46,4.87-45,8.2-67.35,1.56-10.44,3.15-20.5,1.38-30.76l71.91,7.21c25.46,2.57,50.86,5.57,76.27,7.75,4,.39,4.06,2.22,4.06,5.12v47.35h1.29ZM793,488.15h.17L698.7,540.74h-2.06c0-29.31.61-58.61-.33-87.91A18.67,18.67,0,0,1,709.12,432c26.8-12.25,53-25.79,79.55-39,2.12-1.06,4.35-2,7.36-3.35v93.05A5.57,5.57,0,0,1,793,488.15Zm-1.41-109.06a9.25,9.25,0,0,1-1,.37c-29.08,14-58.33,28.41-87.3,42.89-5,2.46-8.13,3.79-7.46-3.84,0-.61-1-1.28-1.56-2-4,1.06-6.13,0-5.57-4.62a36.59,36.59,0,0,0-.67-6.35c0-21.73-.28-43.4-.45-65.13.78-26.24-1.11-52.48-.89-78.77,0-2-1.67-5.18,2.34-5.57s5.57.39,5.57,4.85c0,19.16,0,38.32.5,57.43,0,2.23.39,4.4.61,6.63,0,21.67,0,43.34.45,65,0,8,0,16-.28,24.07,1.9,4.23,4.18.84,5.91,0q43.79-21.29,87.57-42.67c1.95-.95,4-1.73,6-2.62a7.75,7.75,0,0,1-3.75,10.3l-.06,0Zm.58-167.2c-30.64,13.76-61,27.74-91.42,40.89-1.34.61-4,4.23-5.07,0-.73-2.51-2-6.19,2.23-8,8.52-3.73,17-7.74,25.46-11.58C745.61,223,768.28,213,790.68,202.69,794.91,201,797,201,796,206.2l.17.12c.86,3.5-1.34,4.62-4,5.57Z"/><path class="cls-2" d="M695.86,413.89h-.33a2.86,2.86,0,0,0-1.28,2.67h.33C695.69,416,695.14,414.67,695.86,413.89Z"/><rect class="cls-2" x="490.29" y="378.88" width="195.06" height="151.58"/><rect class="cls-2" x="490.29" y="228.24" width="91.06" height="21.76"/><rect class="cls-2" x="607.68" y="178.31" width="19.74" height="136.17" transform="translate(292.66 826.5) rotate(-82.5)"/><rect class="cls-2" x="680.97" y="418.15" width="10.34" height="126.84"/><rect class="cls-2" x="560.25" y="526.95" width="127.66" height="18.04"/><rect class="cls-2" x="676.67" y="239.12" width="21.45" height="191.23"/></g></g><path class="cls-3" d="M679.26,543.55,501.29,514a7.37,7.37,0,0,1-6.15-7.27V247.17a7.37,7.37,0,0,1,8-7.34l175.57,15.62a7.37,7.37,0,0,1,6.71,7.27l2.4,273.5A7.36,7.36,0,0,1,679.26,543.55Z"/><path class="cls-2" d="M552.11,338a.71.71,0,0,1-.41-.49,2.07,2.07,0,0,1,.33-.89c.23-.43.6-1.08,1.09-2a10.27,10.27,0,0,0,.77-1.5,4.32,4.32,0,0,0,.23-.78c0-.15,0-.25,0-.3a.36.36,0,0,1,.05-.31.64.64,0,0,1,.29-.19c.08-.07.25-.19.51-.37a2,2,0,0,0,.63-.65c.14-.29.3-.6.48-.91s.42-.7.71-1.17.68-1.09,1.17-1.84c.31-.5.67-1.05,1.1-1.67s.83-1.18,1.24-1.68a2.36,2.36,0,0,1,.51-.46.91.91,0,0,1,.47-.15,2,2,0,0,1,.94.29,3.18,3.18,0,0,1,.81.64,2,2,0,0,1,.47.71,1.47,1.47,0,0,1,.06.74c0,.37-.08.83-.14,1.36s-.14,1.1-.22,1.7-.16,1.28-.28,2.08-.23,1.64-.34,2.52-.21,1.72-.29,2.53a18.2,18.2,0,0,0-.08,2.12,1.48,1.48,0,0,1,0,.37c0,.12,0,.21,0,.28a.8.8,0,0,1-.56.1,3,3,0,0,1-.84-.18c-.27-.09-.42-.21-.44-.34a.33.33,0,0,1-.08-.11,1.44,1.44,0,0,1,0-.42c0-.25.07-.71.12-1.39l.24-3.3h-.28c-.13,0-.36,0-.7,0s-.71,0-1.11.07l-1.09.11a7,7,0,0,0-.7.11.75.75,0,0,0-.47.25,2.78,2.78,0,0,0-.54.65,2.27,2.27,0,0,1-.34.62,1.11,1.11,0,0,0-.24.43,1.65,1.65,0,0,0-.36.4,3.1,3.1,0,0,1-.22.63c-.14.33-.32.7-.52,1.1a6.77,6.77,0,0,1-.63,1l-.61.79Zm5.45-7.22.81-.11a3.24,3.24,0,0,1,.6,0c.33-.07.61-.13.84-.16a4.44,4.44,0,0,1,.55-.05.67.67,0,0,1,.34.06.45.45,0,0,0,.24.16,3.34,3.34,0,0,0,.1-.45c.05-.27.12-.6.19-1s.15-.81.22-1.25.14-.85.2-1.23.1-.67.12-.89a5.76,5.76,0,0,0,0-1.08c-.08,0-.25.15-.5.45s-.54.7-.87,1.19-.66,1-1,1.62a4.47,4.47,0,0,1-.43.63c-.13.15-.23.23-.3.23a2.1,2.1,0,0,0-.24.32c-.13.19-.27.4-.41.63s-.27.45-.37.64S557.52,330.7,557.56,330.73Z"/><path class="cls-2" d="M564.9,338a.71.71,0,0,1-.72-.25,2,2,0,0,1-.42-1,3.69,3.69,0,0,1,.11-1.45c.07-.17.14-.34.19-.5a2,2,0,0,0,.08-.4,5.8,5.8,0,0,1,.2-.63c.09-.27.2-.56.31-.86s.22-.56.32-.8.17-.38.2-.43.12-.05.16-.15a.84.84,0,0,0,.08-.3,1.3,1.3,0,0,1,.26-.68,1.07,1.07,0,0,1,.07-.25.56.56,0,0,0,.06-.22.29.29,0,0,1,.06-.17.29.29,0,0,0,.06-.17c.11-.18.25-.48.44-.88s.38-.85.59-1.35.42-1,.61-1.47.35-.89.47-1.22a4.87,4.87,0,0,0,.19-.61.47.47,0,0,1,.14-.32.39.39,0,0,1,.31-.14.51.51,0,0,1,.3-.08,1.45,1.45,0,0,1,.33,0l.33.35a3.73,3.73,0,0,1,.32.36.7.7,0,0,1,.14.46,1.91,1.91,0,0,1-.09.54,7.25,7.25,0,0,1-.3.69c-.14.29-.36.72-.66,1.28a7.46,7.46,0,0,1-.4.8,1.56,1.56,0,0,0-.21.45.73.73,0,0,1-.08.26,3.11,3.11,0,0,0-.18.43c-.07.11-.15.27-.26.49l-.34.7-.3.64a1.54,1.54,0,0,0-.12.31,1,1,0,0,1,0,.17.26.26,0,0,1-.1.17c-.06,0-.09.08-.12.23a4.47,4.47,0,0,1-.39,1.13q-.39,1.19-.72,2.16a5.69,5.69,0,0,0-.35,1.59,1.66,1.66,0,0,1-.2.79A.83.83,0,0,1,564.9,338Z"/><path class="cls-2" d="M569,338.14a.71.71,0,0,1-.72-.25,2,2,0,0,1-.42-1,3.67,3.67,0,0,1,.1-1.45c.08-.17.14-.34.2-.5a2,2,0,0,0,.08-.4c0-.14.1-.35.19-.63s.2-.56.32-.86.22-.56.32-.8.17-.38.2-.43.11-.05.16-.15a.84.84,0,0,0,.08-.3,1,1,0,0,1,.09-.38.82.82,0,0,1,.17-.3.69.69,0,0,1,.06-.25.61.61,0,0,0,.07-.22.29.29,0,0,1,.06-.17.29.29,0,0,0,.06-.17,9.21,9.21,0,0,0,.43-.88c.19-.4.38-.85.6-1.35s.42-1,.61-1.47.35-.89.47-1.22a3.08,3.08,0,0,0,.18-.61.51.51,0,0,1,.14-.32.42.42,0,0,1,.31-.14.58.58,0,0,1,.31-.08,1.39,1.39,0,0,1,.32,0l.34.35c.11.11.21.23.32.36a.7.7,0,0,1,.14.46,1.91,1.91,0,0,1-.1.54,5,5,0,0,1-.29.69c-.14.29-.36.72-.66,1.28-.13.29-.26.55-.4.8a1.56,1.56,0,0,0-.21.45.61.61,0,0,1-.09.26c0,.11-.11.26-.17.43s-.15.27-.26.49-.23.46-.34.7l-.3.64a1.54,1.54,0,0,0-.12.31,1,1,0,0,1,0,.17.31.31,0,0,1-.1.17c-.06,0-.1.08-.12.23a4.47,4.47,0,0,1-.39,1.13q-.39,1.19-.72,2.16a5.69,5.69,0,0,0-.35,1.59,1.66,1.66,0,0,1-.2.79A.83.83,0,0,1,569,338.14Z"/><path class="cls-2" d="M550,367.6a4.64,4.64,0,0,1-1.49,0,3.21,3.21,0,0,1-1.19-.42,1.27,1.27,0,0,1-.57-.65.7.7,0,0,1,.16-.73,1.11,1.11,0,0,1,.63-.26c.24,0,.39,0,.46.11l.54.34a1.38,1.38,0,0,0,.93.15,1.86,1.86,0,0,0,.9-.44,7.34,7.34,0,0,0,.73-.75l.62-.91c.29-.43.59-.92.91-1.44s.58-1,.8-1.47l.17-.41a1.17,1.17,0,0,1,.23-.38l.24-.48a2.11,2.11,0,0,0,.14-.3,1.53,1.53,0,0,1,.21-.43c.12-.21.24-.42.35-.63s.2-.53.36-.94a7.38,7.38,0,0,1,.47-1l.45-.79c.12-.21.24-.33.37-.36a.58.58,0,0,1,.38-.14.77.77,0,0,1,.4.15,2.59,2.59,0,0,1,.4.52.94.94,0,0,1,.11.61,2.55,2.55,0,0,1-.4.94,7.4,7.4,0,0,1-.41.93,3.53,3.53,0,0,1-.34.54c-.07.17-.16.35-.27.56l-.27.56q-.42.85-.72,1.38c-.2.35-.38.67-.54,1s-.32.64-.49,1l-1,1.49c-.33.46-.68.9-1,1.31l-.63.48c-.28.2-.56.38-.85.55A2.36,2.36,0,0,1,550,367.6Zm2.89-4.78a1.23,1.23,0,0,1-.69-.46,3.88,3.88,0,0,1-.59-.84c-.16-.3-.22-.5-.18-.61v-.24c-.09,0-.15-.13-.19-.39a6.11,6.11,0,0,1-.07-1c0-.39,0-.79,0-1.21s.06-.8.1-1.14a3.36,3.36,0,0,0,.12-.81c0-.29,0-.53.05-.7a.83.83,0,0,1,.16-.56,1.35,1.35,0,0,1,.26-.27.79.79,0,0,1,1.15.42,4.48,4.48,0,0,1,.17,2.27c-.05.58-.09,1.13-.11,1.65a5.58,5.58,0,0,0,.1,1.36,1.32,1.32,0,0,0,.49.82c.1.06.13.18.09.37a2.2,2.2,0,0,1-.22.58,2.71,2.71,0,0,1-.35.53C553.09,362.78,553,362.84,552.9,362.82Z"/><path class="cls-2" d="M559.32,363.31a.72.72,0,0,1-.44-.12l-.39-.32a4,4,0,0,1-.62-.95,1.46,1.46,0,0,1-.15-.87,1.17,1.17,0,0,0,.06-.5c-.06-.07-.08-.12,0-.14a.31.31,0,0,0,.09-.12c.08,0,.12-.07.09-.23a2,2,0,0,1,.17-.74,4.92,4.92,0,0,1,.55-1.07c.1-.14.23-.33.41-.56s.39-.46.6-.69a5.59,5.59,0,0,1,.6-.55,8,8,0,0,1,1-.69,3.11,3.11,0,0,1,1-.35,4.48,4.48,0,0,1,1-.07,1.08,1.08,0,0,1,.82.38,1.41,1.41,0,0,1,.68.61,2.71,2.71,0,0,1,.23,1,5.39,5.39,0,0,1-.19,1.58A6.1,6.1,0,0,1,563.6,361a5.91,5.91,0,0,1-1.1,1.16,8.23,8.23,0,0,1-1.18.76,2.2,2.2,0,0,1-1,.33Zm2.31-2.54a2.54,2.54,0,0,0,.71-.88c.15-.33.31-.71.49-1.15a.91.91,0,0,0,.13-.43,2.38,2.38,0,0,0,0-.59c0-.2,0-.31-.14-.34a.35.35,0,0,0-.38-.09,2,2,0,0,0-.51.27,8.22,8.22,0,0,0-1.25,1.19,4.25,4.25,0,0,0-.83,1.69,1.19,1.19,0,0,0,.08.81.5.5,0,0,0,.6.18A2.76,2.76,0,0,0,561.63,360.77Z"/><path class="cls-2" d="M570.54,363.86a1.37,1.37,0,0,1-.32-.6c-.08-.26-.15-.55-.23-.89a1.24,1.24,0,0,1,0-.39,1.9,1.9,0,0,0,0-.34c-.05.1-.12.22-.22.38a1.69,1.69,0,0,1-.28.33c-.06.06-.2.16-.41.32a3.14,3.14,0,0,1-.62.38,2.16,2.16,0,0,1-1.28.37,1.29,1.29,0,0,1-.93-.59,2,2,0,0,1-.54-.74,1.49,1.49,0,0,1,0-1,8.68,8.68,0,0,1,.27-1.47,12.43,12.43,0,0,1,.79-1.91l.74-1.35a4.57,4.57,0,0,1,.33-.57,1.4,1.4,0,0,1,.8,0c.31.09.48.24.5.44a1.25,1.25,0,0,1,0,.81,6.46,6.46,0,0,1-.57,1.33l-.63,1.4a4.83,4.83,0,0,0-.37,1.15c0,.32,0,.52.22.6a.81.81,0,0,0,.58,0,2.42,2.42,0,0,0,.92-.74,8.83,8.83,0,0,0,1.18-2,5.42,5.42,0,0,0,.29-.76,3.24,3.24,0,0,0,.14-.74.75.75,0,0,1,.16-.53,1.52,1.52,0,0,1,.46-.42.86.86,0,0,1,.25-.19c.1-.06.16-.06.19,0h.35c.06,0,.12.05.19.18a.86.86,0,0,0,.2.29c.15.13.21.42.18.85a5.52,5.52,0,0,1-.59,1.79,11.92,11.92,0,0,0-.6,1.32,3.59,3.59,0,0,0-.2.88,2.72,2.72,0,0,0,0,.66,1.11,1.11,0,0,0,.37.56.64.64,0,0,1,.25.52,4.12,4.12,0,0,1,0,.62.41.41,0,0,1-.35.25,1.66,1.66,0,0,1-.63,0A1.21,1.21,0,0,1,570.54,363.86Z"/><path class="cls-2" d="M586.08,364a2,2,0,0,1-.78-.24,1.11,1.11,0,0,1-.48-.67,2.54,2.54,0,0,1-.05-.73c0-.25.05-.5.08-.73a5.72,5.72,0,0,0,.07-.61v-.42c0-.21-.07-.35-.15-.4a.47.47,0,0,0-.4,0,7.6,7.6,0,0,0-1,.53,11.62,11.62,0,0,0-1.14.78c-.39.29-.8.6-1.21.93a10.19,10.19,0,0,0-.74.82c-.16.21-.32.31-.47.3a.35.35,0,0,1-.37-.06,4.85,4.85,0,0,1-.4-.31c-.1-.12-.21-.28-.34-.46a3.58,3.58,0,0,1-.23-.37,2.91,2.91,0,0,1,.08-.62,3.56,3.56,0,0,1,.19-.58l.32-.68.18-.3c0-.11.12-.22.19-.35a6.6,6.6,0,0,1,.28-.68c.12-.26.23-.5.34-.72s.31-.69.41-1a8.47,8.47,0,0,0,.25-.88s0-.07,0-.13a.21.21,0,0,1,.14-.1h0a.8.8,0,0,1,.57,0,1.42,1.42,0,0,1,.63.28,1.21,1.21,0,0,1,.39,1,3.71,3.71,0,0,1-.71,1.61,6.14,6.14,0,0,1-.34.63,1.42,1.42,0,0,0-.18.39l.61-.42a2.86,2.86,0,0,1,.42-.27,5,5,0,0,1,.49-.39l.82-.58.71-.47a3.87,3.87,0,0,1,.62-.33,1.92,1.92,0,0,1,.46-.17,1.34,1.34,0,0,1,.52.18,3.29,3.29,0,0,1,.57.37.84.84,0,0,1,.3.39,1.11,1.11,0,0,1,0,.23,1.21,1.21,0,0,0,0,.25c0,.23,0,.5,0,.83s0,.65,0,1a5.22,5.22,0,0,1-.12.87l.06.13s0,.06,0,.13a1.81,1.81,0,0,0,.09.31,3.54,3.54,0,0,0,.12.34c0,.12.11.28.18.47a.82.82,0,0,1-.34.54A1.23,1.23,0,0,1,586.08,364Z"/><path class="cls-2" d="M592.74,364.35a3.23,3.23,0,0,1-1.38.37,3.11,3.11,0,0,1-1.34-.25,2.28,2.28,0,0,1-1-.79,2.77,2.77,0,0,1-.37-.91,3.85,3.85,0,0,1,0-1.67,6.65,6.65,0,0,1,.69-2,7.22,7.22,0,0,1,1.27-1.74,3.8,3.8,0,0,1,1.6-1,3.25,3.25,0,0,1,.62-.13,3.41,3.41,0,0,1,.83,0,2.78,2.78,0,0,1,.87.28,1.49,1.49,0,0,1,.55.42,1.89,1.89,0,0,1,.43.69,1.73,1.73,0,0,1,.06.63,3.89,3.89,0,0,1-.68,1.46,2.88,2.88,0,0,1-2.33,1.3,5.3,5.3,0,0,1-1.35-.19c-.34-.08-.57-.06-.69.08a1.46,1.46,0,0,0-.17.84,2.06,2.06,0,0,0,.16.69.74.74,0,0,0,.51.42,1.65,1.65,0,0,0,.71,0l.55-.21.34-.22.34-.25a2.1,2.1,0,0,1,.28-.18.4.4,0,0,1,.22-.1l.21,0a.74.74,0,0,1,.45.28,1.36,1.36,0,0,1,.26.46,1.05,1.05,0,0,1-.24.48,4.22,4.22,0,0,1-.59.63A4.74,4.74,0,0,1,592.74,364.35Zm-.09-4.82a2.12,2.12,0,0,0,.46-.29,4.28,4.28,0,0,0,.55-.49.75.75,0,0,0,.25-.41c0-.15-.09-.3-.3-.42a1.14,1.14,0,0,0-.8-.1,1.22,1.22,0,0,0-.42.22,4.87,4.87,0,0,0-.49.43,4.45,4.45,0,0,0-.43.46,3.11,3.11,0,0,0-.26.34.63.63,0,0,0,.34.19,2.43,2.43,0,0,0,.57.09A2.85,2.85,0,0,0,592.65,359.53Z"/><path class="cls-2" d="M600,364.63a3.09,3.09,0,0,1-1.38.37,2.84,2.84,0,0,1-1.34-.25,2.34,2.34,0,0,1-1-.78,2.87,2.87,0,0,1-.37-.91,3.91,3.91,0,0,1,0-1.68,6.5,6.5,0,0,1,.69-2,7.08,7.08,0,0,1,1.27-1.75,3.7,3.7,0,0,1,1.59-1,3.56,3.56,0,0,1,.63-.14,3.41,3.41,0,0,1,.83,0,3.07,3.07,0,0,1,.87.28,1.62,1.62,0,0,1,.55.43,2,2,0,0,1,.43.68,1.73,1.73,0,0,1,.06.63,4,4,0,0,1-.68,1.47,3.06,3.06,0,0,1-1.46,1.13,3.14,3.14,0,0,1-.87.16,5.2,5.2,0,0,1-1.35-.18c-.34-.09-.57-.06-.69.08a1.44,1.44,0,0,0-.17.83,2.06,2.06,0,0,0,.16.69.74.74,0,0,0,.51.42,1.65,1.65,0,0,0,.71,0,4.9,4.9,0,0,0,.55-.2,4,4,0,0,0,.34-.23l.34-.25a2.1,2.1,0,0,1,.28-.18.49.49,0,0,1,.22-.1h.21a.72.72,0,0,1,.45.27,1.4,1.4,0,0,1,.26.47,1.16,1.16,0,0,1-.24.48,4.18,4.18,0,0,1-.59.62A4.74,4.74,0,0,1,600,364.63Zm-.09-4.82a1.78,1.78,0,0,0,.46-.29,5.11,5.11,0,0,0,.55-.48c.16-.18.25-.31.25-.41s-.09-.3-.3-.43a1.14,1.14,0,0,0-.8-.09,1.07,1.07,0,0,0-.42.22,4.64,4.64,0,0,0-.5.42c-.16.16-.3.32-.42.46a2.17,2.17,0,0,0-.26.35.71.71,0,0,0,.34.18,2.43,2.43,0,0,0,.57.09A2.85,2.85,0,0,0,599.86,359.81Z"/><path class="cls-2" d="M608.88,365.83a.69.69,0,0,1-.55-.16,1.35,1.35,0,0,1-.36-.46,2.83,2.83,0,0,1-.13-.67c0-.2,0-.45,0-.72v-.74l-.92.77a5.17,5.17,0,0,1-1.41.93,2.8,2.8,0,0,1-1.16.24,1.25,1.25,0,0,1-.56-.33,3.84,3.84,0,0,1-.58-.63,3,3,0,0,1-.36-.57,1.71,1.71,0,0,1,0-.84,6.2,6.2,0,0,1,.3-1.18,10.72,10.72,0,0,1,.57-1.25,4.75,4.75,0,0,1,.77-1.05,3,3,0,0,1,1.82-1.28,2.46,2.46,0,0,1,1.87.26,1,1,0,0,0,.56.17.32.32,0,0,0,.22-.27c.07-.23.14-.44.22-.64s.2-.5.34-.9c.4-1.08.75-1.92,1-2.53s.56-1.14.79-1.59a2.06,2.06,0,0,1,.5-.67.55.55,0,0,1,.42-.16,1.38,1.38,0,0,1,.58.2.82.82,0,0,1,.45.49,1,1,0,0,1,.06.41,1,1,0,0,1-.16.45c-.2.34-.44.79-.71,1.35s-.55,1.17-.83,1.83-.54,1.33-.78,2-.45,1.23-.61,1.73a7.51,7.51,0,0,0-.25,1.2c-.07.49-.13,1-.17,1.5s-.06,1-.06,1.36a6.05,6.05,0,0,0,0,.77.79.79,0,0,1,0,.64.66.66,0,0,1-.38.28A2.67,2.67,0,0,1,608.88,365.83Zm-3.46-2.75a3.5,3.5,0,0,0,.55-.24l.58-.37a5.64,5.64,0,0,0,1-.82,3,3,0,0,0,.5-.89.79.79,0,0,0,0-.56,1.23,1.23,0,0,0-.32-.47.74.74,0,0,0-.59-.18,1.48,1.48,0,0,0-.86.43,4.51,4.51,0,0,0-.93,1.06,6.11,6.11,0,0,0-.68,1.77.26.26,0,0,0,.14.31A.88.88,0,0,0,605.42,363.08Z"/><path class="cls-2" d="M617,365.37a1.13,1.13,0,0,1-.23-.53,2.23,2.23,0,0,1,0-.68,1.35,1.35,0,0,1,.12-.5.59.59,0,0,1,.07-.27.25.25,0,0,0,0-.18.65.65,0,0,1,0-.3c0-.15.1-.28.15-.41s.24-.52.38-.88.29-.73.43-1.11.27-.7.37-1,.15-.44.17-.5.12-.26.35-.27.38,0,.62.24a3.07,3.07,0,0,1,.56.67.5.5,0,0,1,.11.46,3.54,3.54,0,0,1-.31.79,4,4,0,0,0-.23.56,6.71,6.71,0,0,0-.19.66c-.06.11-.13.27-.22.47s-.16.4-.23.59a1.73,1.73,0,0,0-.1.39c0,.2-.08.4-.13.59a1.38,1.38,0,0,1-.2.47c-.15.59-.39.92-.72,1A.77.77,0,0,1,617,365.37Zm2.67-8.56a1.31,1.31,0,0,1-.34-.44,1.22,1.22,0,0,1-.11-.45c0-.13,0-.21,0-.23a2.17,2.17,0,0,0,.41-.61,4.22,4.22,0,0,1,.38-.7l.13-.18a.34.34,0,0,1,.16-.14.8.8,0,0,1,.73.05,1.5,1.5,0,0,1,.66.57,1.46,1.46,0,0,1,.08.85,2.08,2.08,0,0,1-.5.89,1.39,1.39,0,0,1-.84.51A1,1,0,0,1,619.63,356.81Z"/><path class="cls-2" d="M622.25,366.08a3.45,3.45,0,0,1-1-.68c-.22-.24-.3-.44-.25-.61a.69.69,0,0,1,.16-.23.75.75,0,0,1,.49-.08,6.72,6.72,0,0,1,1.17.25h.48a3,3,0,0,0,.44-.05,1.28,1.28,0,0,0,.34-.09c.07,0,.1-.07.07-.12a1,1,0,0,0-.15-.17.34.34,0,0,0-.18-.14.54.54,0,0,0-.2,0,.49.49,0,0,0-.17-.23l-.33-.25-.83-.72c-.25-.21-.35-.37-.29-.47v-.11c-.1,0-.19-.14-.27-.43a2.76,2.76,0,0,1-.1-.77,2.19,2.19,0,0,1,.22-.85,3.45,3.45,0,0,1,.51-.81,5.65,5.65,0,0,1,.62-.66c.28-.25.58-.5.9-.74a7.24,7.24,0,0,1,1-.64,5.83,5.83,0,0,1,1.24-.42,3.11,3.11,0,0,1,.7,0,1,1,0,0,1,.55.13c.12-.07.26,0,.43.07a2.65,2.65,0,0,1,.5.46,2.24,2.24,0,0,1,.37.58c0,.17,0,.39,0,.64a3.72,3.72,0,0,1-.08.65c0,.19-.1.28-.2.28a.11.11,0,0,0-.11.12.82.82,0,0,1-.35.49,6.85,6.85,0,0,1-.79.42.57.57,0,0,1-.57,0l-.23-.18a1,1,0,0,1-.18-.23.72.72,0,0,1-.1-.28.44.44,0,0,1,.14-.24,2.45,2.45,0,0,0,.48-.5,1.73,1.73,0,0,0,.25-.41.75.75,0,0,0,.07-.29.17.17,0,0,0,0-.16.52.52,0,0,0-.23,0,1.71,1.71,0,0,0-.47.15c-.24.11-.49.24-.76.39a5.39,5.39,0,0,0-.62.42c-.06.1-.11.16-.13.19s-.06,0-.12,0,0-.05-.11,0l-.27.29-.32.4-.25.34a1.42,1.42,0,0,1-.11.35.62.62,0,0,0-.07.33.74.74,0,0,0,.2.42c.13.13.31.31.54.52.49.39.86.7,1.1.93a2.92,2.92,0,0,1,.51.54.86.86,0,0,1,.18.39,1.13,1.13,0,0,1,0,1.16,1.82,1.82,0,0,1-.89.71,2.9,2.9,0,0,1-.76.18,6.15,6.15,0,0,1-1.14,0A3,3,0,0,1,622.25,366.08Z"/><path class="cls-2" d="M548.89,389.24a.71.71,0,0,1-.72-.26,1.89,1.89,0,0,1-.42-1,3.62,3.62,0,0,1,.1-1.44c.08-.17.14-.34.2-.5a2.14,2.14,0,0,0,.08-.4c0-.14.1-.35.19-.63s.2-.56.32-.86.22-.57.32-.8.17-.38.2-.44.11,0,.16-.14a.84.84,0,0,0,.08-.3,1,1,0,0,1,.09-.39.69.69,0,0,1,.17-.29.65.65,0,0,1,.06-.25.67.67,0,0,0,.07-.22.27.27,0,0,1,.06-.17.32.32,0,0,0,.06-.17c.11-.19.25-.48.43-.88s.38-.86.6-1.36.42-1,.61-1.46.35-.89.47-1.23a2.73,2.73,0,0,0,.18-.61.54.54,0,0,1,.14-.32.41.41,0,0,1,.31-.13.67.67,0,0,1,.31-.09l.32,0,.34.36a2.83,2.83,0,0,1,.32.36.68.68,0,0,1,.14.46,2.05,2.05,0,0,1-.1.54,5,5,0,0,1-.29.69c-.14.29-.36.71-.66,1.28-.13.28-.26.55-.4.79a1.56,1.56,0,0,0-.21.46.66.66,0,0,1-.09.26c-.05.11-.11.25-.17.42s-.15.28-.26.5-.23.45-.34.7l-.3.64a1.59,1.59,0,0,0-.12.3,1.1,1.1,0,0,1,0,.18.34.34,0,0,1-.1.17c-.06,0-.1.07-.12.23a4.61,4.61,0,0,1-.39,1.13l-.72,2.15a5.84,5.84,0,0,0-.35,1.59,1.6,1.6,0,0,1-.2.79A.86.86,0,0,1,548.89,389.24Z"/><path class="cls-2" d="M553.31,389a.88.88,0,0,1-.44-.12l-.39-.32a3.84,3.84,0,0,1-.62-1,1.44,1.44,0,0,1-.15-.87,1.24,1.24,0,0,0,.07-.49c-.07-.08-.09-.12-.06-.14a.31.31,0,0,0,.09-.12c.08,0,.12-.07.09-.23a2,2,0,0,1,.17-.74,4.71,4.71,0,0,1,.55-1.07c.1-.14.23-.33.42-.56s.38-.46.59-.69a5.59,5.59,0,0,1,.6-.55,7.11,7.11,0,0,1,1-.69,3.14,3.14,0,0,1,1-.36,4.53,4.53,0,0,1,1-.06,1.07,1.07,0,0,1,.82.37,1.47,1.47,0,0,1,.68.61,2.56,2.56,0,0,1,.23,1,5.39,5.39,0,0,1-.19,1.58,6.1,6.1,0,0,1-1.14,2.12,6,6,0,0,1-1.11,1.17,8.71,8.71,0,0,1-1.17.76,2.36,2.36,0,0,1-1,.32C554,389,553.64,389,553.31,389Zm2.31-2.54a2.63,2.63,0,0,0,.71-.88c.15-.33.31-.71.49-1.15A1.07,1.07,0,0,0,557,384a3,3,0,0,0,0-.59c0-.2,0-.31-.14-.34a.35.35,0,0,0-.38-.09,2.14,2.14,0,0,0-.51.27,8.22,8.22,0,0,0-1.25,1.19,4.19,4.19,0,0,0-.83,1.69,1.2,1.2,0,0,0,.08.81.51.51,0,0,0,.6.18A2.76,2.76,0,0,0,555.62,386.48Z"/><path class="cls-2" d="M561.51,388.35a2.27,2.27,0,0,1-.37-.79,14.85,14.85,0,0,1-.42-1.53c-.12-.58-.22-1.12-.29-1.61q-.07-.44-.15-.75l-.15-.5a1.23,1.23,0,0,1,.11-.81,1.11,1.11,0,0,1,.47-.57,1,1,0,0,1,.4-.08,1.51,1.51,0,0,1,.38,0c.17.07.32.34.44.81a13,13,0,0,1,.32,1.86c0,.45.07.78.1,1a3.32,3.32,0,0,1,0,.4,1.6,1.6,0,0,1,.1.43c0,.16.08.19.2.08L563,386c.13-.14.29-.32.47-.55.32-.39.57-.71.76-1s.41-.53.65-.81a4.29,4.29,0,0,1,.43-.46c.18-.16.36-.32.54-.46a1.11,1.11,0,0,1,.44-.26.49.49,0,0,1,.62.41,1.27,1.27,0,0,1-.36,1.05,4.38,4.38,0,0,0-.29.48.77.77,0,0,1-.19.3c-.13.23-.32.51-.57.86s-.51.65-.76.94a6.09,6.09,0,0,1-.49.55,4.66,4.66,0,0,1-.39.31,3.25,3.25,0,0,0-.58.59,2.3,2.3,0,0,1-1,.56A.74.74,0,0,1,561.51,388.35Z"/><path class="cls-2" d="M571.08,389.44a3.23,3.23,0,0,1-1.38.37,3.11,3.11,0,0,1-1.34-.25,2.34,2.34,0,0,1-1-.78,3.2,3.2,0,0,1-.37-.92,3.85,3.85,0,0,1,0-1.67,6.65,6.65,0,0,1,.69-2,7.22,7.22,0,0,1,1.27-1.74,3.8,3.8,0,0,1,1.6-1,3.25,3.25,0,0,1,.62-.13,3.4,3.4,0,0,1,.83,0,3.07,3.07,0,0,1,.87.28,1.49,1.49,0,0,1,.55.42,1.89,1.89,0,0,1,.43.69,1.73,1.73,0,0,1,.06.63,4,4,0,0,1-.67,1.46,3.1,3.1,0,0,1-1.47,1.14,3.07,3.07,0,0,1-.87.16,5.3,5.3,0,0,1-1.35-.19c-.34-.08-.57-.06-.69.08a1.46,1.46,0,0,0-.17.84,2.06,2.06,0,0,0,.16.69.74.74,0,0,0,.51.42,1.65,1.65,0,0,0,.71,0l.55-.21.34-.22.34-.25a2.1,2.1,0,0,1,.28-.18.4.4,0,0,1,.22-.1.74.74,0,0,1,.21,0,.72.72,0,0,1,.45.27,1.4,1.4,0,0,1,.26.47,1,1,0,0,1-.24.47,4.22,4.22,0,0,1-.59.63A4.74,4.74,0,0,1,571.08,389.44Zm-.09-4.82a2.12,2.12,0,0,0,.46-.29,4.28,4.28,0,0,0,.55-.49.75.75,0,0,0,.25-.41A.49.49,0,0,0,572,383a1.18,1.18,0,0,0-.81-.1,1.22,1.22,0,0,0-.42.22,4.87,4.87,0,0,0-.49.43,4.45,4.45,0,0,0-.43.46c-.12.15-.21.26-.26.34a.63.63,0,0,0,.34.19,2.52,2.52,0,0,0,.57.09A2.85,2.85,0,0,0,571,384.62Z"/><path class="cls-2" d="M579.87,389.77a1,1,0,0,0-.36-.37c-.19-.12-.29-.21-.28-.27a.81.81,0,0,0-.09-.27,1.56,1.56,0,0,0-.17-.28c-.07-.08,0-.3.09-.63a10.7,10.7,0,0,1,.56-1.22c.25-.48.52-1,.82-1.46a2.43,2.43,0,0,0,.36-.44,2.68,2.68,0,0,1,.27-.36.3.3,0,0,1,.08-.16.18.18,0,0,1,.15-.07l.19-.33a2,2,0,0,1,.28-.34c.16-.17.35-.35.57-.55s.45-.39.68-.57.42-.3.57-.39a1.52,1.52,0,0,1,.95-.24,1.38,1.38,0,0,1,.82.34l.28.27.5.45c.19.16.35.31.49.45l.77.74-.41,1.07a3,3,0,0,0-.21,1.5,3.4,3.4,0,0,0,.37,1.14.92.92,0,0,0,.28.38,1,1,0,0,0,.47.19.63.63,0,0,1,.32.15.37.37,0,0,1,.14.35,1.13,1.13,0,0,1-.21.73.75.75,0,0,1-.41.26,2.85,2.85,0,0,1-1.36-.21,3.5,3.5,0,0,1-1.32-1.77,2.63,2.63,0,0,1-.14-.47l-.24.26a3.69,3.69,0,0,1-.28.28,9.12,9.12,0,0,1-2.71,1.92A1.89,1.89,0,0,1,579.87,389.77Zm1.74-1.89a8.42,8.42,0,0,0,.89-.58l1.25-1a5.62,5.62,0,0,0,1-1l.5-.76a1.86,1.86,0,0,0-.36-.66.53.53,0,0,0-.34-.17,1.06,1.06,0,0,0-.68.33,6.72,6.72,0,0,0-.92,1c-.34.44-.72,1-1.15,1.65a7.37,7.37,0,0,0-.64,1.34A.89.89,0,0,0,581.61,387.88Z"/><path class="cls-2" d="M596.39,390.35a2,2,0,0,1-.78-.24,1.16,1.16,0,0,1-.49-.67,2.93,2.93,0,0,1,0-.73,5.62,5.62,0,0,1,.08-.73,5.72,5.72,0,0,0,.07-.61V387a.63.63,0,0,0-.15-.4.47.47,0,0,0-.4,0,8.35,8.35,0,0,0-1,.53,12.87,12.87,0,0,0-1.13.78c-.39.29-.8.6-1.21.93a8.56,8.56,0,0,0-.74.82.6.6,0,0,1-.48.3.31.31,0,0,1-.36-.06,4.85,4.85,0,0,1-.4-.31c-.1-.12-.21-.27-.34-.46a2.34,2.34,0,0,1-.23-.37,3.78,3.78,0,0,1,.07-.62,3.63,3.63,0,0,1,.2-.58c.09-.19.19-.42.32-.68a2.91,2.91,0,0,0,.17-.3c.06-.11.12-.22.2-.35a6.6,6.6,0,0,1,.28-.68c.12-.26.23-.5.34-.72.17-.37.31-.69.41-1A6.59,6.59,0,0,0,591,383a.18.18,0,0,1,0-.13.21.21,0,0,1,.13-.1h0a.8.8,0,0,1,.57,0,1.54,1.54,0,0,1,.63.28,1.21,1.21,0,0,1,.39,1,3.71,3.71,0,0,1-.71,1.61,6.14,6.14,0,0,1-.34.63,1.42,1.42,0,0,0-.18.39l.6-.42a4.54,4.54,0,0,1,.42-.27c.08-.07.24-.2.5-.39l.82-.58.71-.47a3.87,3.87,0,0,1,.62-.33,1.92,1.92,0,0,1,.46-.17,1.34,1.34,0,0,1,.52.18,4.28,4.28,0,0,1,.57.37.92.92,0,0,1,.3.39c0,.06,0,.14,0,.23a1.21,1.21,0,0,0,0,.25c0,.23,0,.5,0,.83s0,.65,0,1a3.73,3.73,0,0,1-.12.87.49.49,0,0,1,.06.13.26.26,0,0,0,0,.13,2.81,2.81,0,0,0,.08.31c0,.1.08.22.13.34s.11.28.18.47a.9.9,0,0,1-.34.54A1.23,1.23,0,0,1,596.39,390.35Z"/><path class="cls-2" d="M604.77,391.61a.65.65,0,0,1-.55-.16,1.26,1.26,0,0,1-.36-.46,2.75,2.75,0,0,1-.13-.66c0-.21,0-.45,0-.73v-.73l-.92.76a5.17,5.17,0,0,1-1.41.93,2.65,2.65,0,0,1-1.16.24,1.25,1.25,0,0,1-.56-.33,3.84,3.84,0,0,1-.58-.63,3.3,3.3,0,0,1-.36-.56,1.76,1.76,0,0,1,0-.85,6.2,6.2,0,0,1,.3-1.18,10.72,10.72,0,0,1,.57-1.25,4.75,4.75,0,0,1,.77-1.05,3,3,0,0,1,1.82-1.28,2.46,2.46,0,0,1,1.87.26.91.91,0,0,0,.56.17c.11,0,.19-.11.22-.27s.14-.44.22-.64.2-.5.34-.9c.4-1.07.75-1.92,1-2.53s.55-1.14.79-1.59a2.06,2.06,0,0,1,.5-.67.64.64,0,0,1,.42-.16,1.38,1.38,0,0,1,.58.2.85.85,0,0,1,.45.49,1,1,0,0,1,.06.42,1,1,0,0,1-.16.44c-.2.34-.44.79-.71,1.35s-.55,1.17-.83,1.84-.54,1.32-.78,2-.45,1.22-.61,1.72a8,8,0,0,0-.25,1.2c-.07.49-.13,1-.17,1.5s-.06,1-.06,1.36a4.49,4.49,0,0,0,0,.77.82.82,0,0,1,0,.65.64.64,0,0,1-.38.27A2,2,0,0,1,604.77,391.61Zm-3.46-2.75a2.29,2.29,0,0,0,.55-.24c.16-.09.35-.22.58-.37a5.22,5.22,0,0,0,1-.82,3,3,0,0,0,.5-.89.79.79,0,0,0,0-.56,1.23,1.23,0,0,0-.32-.47.78.78,0,0,0-.59-.18,1.48,1.48,0,0,0-.86.43,4.72,4.72,0,0,0-.93,1.06,6.11,6.11,0,0,0-.68,1.77.25.25,0,0,0,.14.31A.88.88,0,0,0,601.31,388.86Z"/><path class="cls-2" d="M613.31,391.08a1,1,0,0,0-.37-.36c-.19-.12-.28-.21-.28-.27a.52.52,0,0,0-.08-.27,1,1,0,0,0-.18-.28q-.1-.13.09-.63a12.11,12.11,0,0,1,.57-1.22c.25-.48.52-1,.81-1.46a2.44,2.44,0,0,0,.37-.44,2.13,2.13,0,0,1,.27-.36.26.26,0,0,1,.07-.16.21.21,0,0,1,.16-.07l.18-.34a3.18,3.18,0,0,1,.29-.33,6.13,6.13,0,0,1,.57-.55c.22-.2.45-.39.68-.57a4.19,4.19,0,0,1,.57-.39,1.51,1.51,0,0,1,1-.24,1.46,1.46,0,0,1,.82.33,2.51,2.51,0,0,0,.28.27c.14.14.31.29.5.46s.35.31.49.45l.77.74-.41,1.07a3,3,0,0,0-.21,1.5,3.4,3.4,0,0,0,.37,1.14.83.83,0,0,0,.27.38,1.18,1.18,0,0,0,.48.19.83.83,0,0,1,.32.14.41.41,0,0,1,.14.35,1.23,1.23,0,0,1-.22.74.7.7,0,0,1-.4.26,3,3,0,0,1-1.36-.21,2.38,2.38,0,0,1-1.12-1.28,3.09,3.09,0,0,1-.2-.49,3,3,0,0,1-.15-.47l-.23.26-.29.28a9.17,9.17,0,0,1-2.7,1.92A1.85,1.85,0,0,1,613.31,391.08Zm1.74-1.89a6.09,6.09,0,0,0,.88-.58l1.26-1a6,6,0,0,0,1-1l.51-.76a2.08,2.08,0,0,0-.36-.66A.56.56,0,0,0,618,385a1.08,1.08,0,0,0-.69.33,7.33,7.33,0,0,0-.91,1c-.34.44-.73,1-1.16,1.65a7.45,7.45,0,0,0-.63,1.34A.84.84,0,0,0,615.05,389.19Z"/><path class="cls-2" d="M548.12,415a2.51,2.51,0,0,1-1.24-.16,2.36,2.36,0,0,1-1-.74,1.81,1.81,0,0,1-.35-1.19,5,5,0,0,1,.18-1.54,9.72,9.72,0,0,1,.63-1.78,6.32,6.32,0,0,1,.94-1.5c.3-.33.6-.64.9-.92a2.61,2.61,0,0,1,.8-.55,3.17,3.17,0,0,1,.75-.18l.62-.05a4.44,4.44,0,0,1,.75.31c.28.15.41.3.41.47l.1.12c.08,0,.18.11.28.32a3.18,3.18,0,0,1,.22.72.93.93,0,0,1-.07.64,2.32,2.32,0,0,1-.37.78c-.17.26-.32.38-.43.38h-.16c-.05,0-.08,0-.08.12s-.08.1-.23.1a1.6,1.6,0,0,1-.47-.11A.46.46,0,0,1,550,410a.88.88,0,0,1,.06-.28l.15-.58a1.37,1.37,0,0,0,0-.81c-.06-.13-.24-.15-.54-.05a3.36,3.36,0,0,0-.91.67,3.65,3.65,0,0,0-.66,1.09,18.58,18.58,0,0,0-.67,2,1.34,1.34,0,0,0-.06.77c0,.19.1.3.15.31a1.39,1.39,0,0,0,.65.06,1.87,1.87,0,0,0,.6-.16,3.72,3.72,0,0,0,.63-.35l.62-.42a.55.55,0,0,0,.2-.24.53.53,0,0,1,.27-.26.54.54,0,0,1,.45-.26l.53,0a.73.73,0,0,1,.36.23,1.35,1.35,0,0,1,.28.34c.06.11.05.19,0,.23s-.1,0-.12.1,0,.19-.19.38a5.7,5.7,0,0,1-.6.63,7.38,7.38,0,0,1-.68.56,1.07,1.07,0,0,1-.45.24c-.15,0-.22,0-.23.12s-.1.09-.32.2-.45.21-.72.32A4.82,4.82,0,0,1,548.12,415Z"/><path class="cls-2" d="M558.46,415.27a1.37,1.37,0,0,1-.32-.6c-.08-.26-.15-.55-.23-.89a1.24,1.24,0,0,1,0-.39,1.9,1.9,0,0,0,0-.34c0,.1-.12.22-.22.38a1.4,1.4,0,0,1-.28.33c-.06.06-.2.16-.4.32a3.84,3.84,0,0,1-.62.38,2.2,2.2,0,0,1-1.28.37,1.29,1.29,0,0,1-.94-.59,2,2,0,0,1-.54-.73,1.58,1.58,0,0,1,0-1,8.68,8.68,0,0,1,.27-1.47,12.43,12.43,0,0,1,.79-1.91c.33-.58.57-1,.75-1.35a3.87,3.87,0,0,1,.32-.57,1.4,1.4,0,0,1,.8,0c.31.09.48.24.5.44a1.25,1.25,0,0,1,0,.81,5.52,5.52,0,0,1-.57,1.33l-.63,1.4a5,5,0,0,0-.37,1.15c0,.32,0,.52.22.6a.81.81,0,0,0,.58,0,2.42,2.42,0,0,0,.92-.74,8.8,8.8,0,0,0,1.19-2c.12-.28.22-.54.29-.76a3.92,3.92,0,0,0,.13-.74.75.75,0,0,1,.16-.53,1.52,1.52,0,0,1,.46-.42,1,1,0,0,1,.25-.19c.1-.06.17-.06.19,0h.35c.06,0,.12.05.19.18a.86.86,0,0,0,.2.29,1,1,0,0,1,.18.85,5.28,5.28,0,0,1-.59,1.79,14.19,14.19,0,0,0-.6,1.32,4.12,4.12,0,0,0-.2.88,3.29,3.29,0,0,0,0,.66,1.11,1.11,0,0,0,.37.56.64.64,0,0,1,.25.52,4.12,4.12,0,0,1,0,.62c0,.13-.15.21-.35.25a1.48,1.48,0,0,1-.63,0A1.21,1.21,0,0,1,558.46,415.27Z"/><path class="cls-2" d="M560.31,420.43h-.25a.3.3,0,0,1-.26-.19c0-.08-.13-.22-.24-.44a1.25,1.25,0,0,1,0-.87,6.44,6.44,0,0,0,.2-.72,4.75,4.75,0,0,0,.09-.52,1.84,1.84,0,0,1,.06-.34A1.3,1.3,0,0,0,560,417a1.39,1.39,0,0,0,.19-.47,3,3,0,0,0,.09-.54.6.6,0,0,1,.28-.46,1.32,1.32,0,0,1,.09-.43,2.17,2.17,0,0,0,.09-.34c0-.2.16-.55.33-1.06s.38-1.08.63-1.72.49-1.26.73-1.87.46-1.13.65-1.55a11.77,11.77,0,0,0,.47-1.11,3,3,0,0,0,.21-.72.26.26,0,0,1,0-.14l.21-.22a.61.61,0,0,1,.58-.14,1.28,1.28,0,0,1,.58.25,2.08,2.08,0,0,1,.23.52,1.6,1.6,0,0,1,0,.7,1.27,1.27,0,0,1-.17.58c-.11.18-.21.32-.29.43s-.11.15-.08.13a4,4,0,0,1,1.74-.57,2.23,2.23,0,0,1,1.28.31,2.09,2.09,0,0,1,.78.89,2.61,2.61,0,0,1,.24,1.17,2,2,0,0,1-.21.69,4.94,4.94,0,0,1-.42.79,2.72,2.72,0,0,1-.36.5c-.06,0-.12,0-.18.13a2.84,2.84,0,0,0-.18.31,2.79,2.79,0,0,1-.6.46,4.13,4.13,0,0,1-.82.4.89.89,0,0,1-.59.07.26.26,0,0,0-.11.19s-.11.09-.31.17a7.23,7.23,0,0,1-.72.2,2.62,2.62,0,0,1-.76.08.89.89,0,0,1-.64-.2.5.5,0,0,0-.11.13.29.29,0,0,0-.06.15,1.28,1.28,0,0,1-.11.4,2.12,2.12,0,0,1-.25.5c-.09.15-.17.22-.24.22a.18.18,0,0,0,0,.24,1.48,1.48,0,0,1-.16.66,2.75,2.75,0,0,1-.08.52,2.48,2.48,0,0,1-.17.51,1.71,1.71,0,0,1-.1.5c-.06.17-.12.25-.17.25s-.1.1-.12.26,0,.28,0,.36a1.47,1.47,0,0,1-.38.92C560.68,420.31,560.49,420.44,560.31,420.43Zm3.06-7.45a2.12,2.12,0,0,0,.64-.12c.3-.09.62-.21,1-.35a3.26,3.26,0,0,0,.8-.43,5,5,0,0,0,.91-.94.92.92,0,0,0,0-1.05.5.5,0,0,0-.55-.27,2,2,0,0,0-.84.32,7.06,7.06,0,0,0-1,.72,3.56,3.56,0,0,0-.5.63,5.4,5.4,0,0,0-.38.7,1.84,1.84,0,0,0-.19.56C563.23,412.9,563.27,413,563.37,413Z"/><path class="cls-2" d="M576.21,415.87a.79.79,0,0,1-.44-.13c-.1-.07-.23-.18-.39-.32a3.78,3.78,0,0,1-.62-.95,1.46,1.46,0,0,1-.15-.87,1.33,1.33,0,0,0,.07-.5c-.07-.07-.09-.12-.06-.14a.35.35,0,0,0,.09-.11c.08,0,.12-.08.09-.24a2.07,2.07,0,0,1,.17-.74,4.92,4.92,0,0,1,.55-1.07c.1-.14.23-.33.42-.56s.38-.46.59-.68a4.7,4.7,0,0,1,.6-.55,8.2,8.2,0,0,1,1-.7,3.38,3.38,0,0,1,1-.35,4.53,4.53,0,0,1,1-.07,1.08,1.08,0,0,1,.82.38,1.47,1.47,0,0,1,.68.61,2.51,2.51,0,0,1,.23,1,5.39,5.39,0,0,1-.19,1.58,6.22,6.22,0,0,1-1.14,2.13,6.66,6.66,0,0,1-1.11,1.17,9.76,9.76,0,0,1-1.17.75,2.24,2.24,0,0,1-1,.33Zm2.31-2.55a2.54,2.54,0,0,0,.71-.88c.15-.33.31-.71.49-1.15a1,1,0,0,0,.14-.43,2.92,2.92,0,0,0,0-.59c0-.19,0-.31-.14-.34a.37.37,0,0,0-.38-.09,3.28,3.28,0,0,0-.51.27,8.22,8.22,0,0,0-1.25,1.19,4.25,4.25,0,0,0-.83,1.69,1.23,1.23,0,0,0,.08.82.51.51,0,0,0,.6.17A2.76,2.76,0,0,0,578.52,413.32Z"/><path class="cls-2" d="M583.44,418.92c-.09.05-.28,0-.57-.23a3.73,3.73,0,0,1-.74-.67.83.83,0,0,1-.17-.37,2.28,2.28,0,0,1,0-.73,1.64,1.64,0,0,0,.11-.45c0-.15,0-.25,0-.3s0-.29.1-.61.13-.64.2-1,.14-.62.19-.81a.8.8,0,0,1,0-.15,1.08,1.08,0,0,1,.06-.19c0-.13.07-.28.12-.47a5.57,5.57,0,0,0,.16-.75c.13-.36.24-.71.34-1.06a3.66,3.66,0,0,0,.14-.72.6.6,0,0,1,.33-.55,1.09,1.09,0,0,1,.14-.32c.08-.15.15-.28.21-.37.32-.81.58-1.46.79-1.94a11.13,11.13,0,0,1,.63-1.25l.32-.75a2.76,2.76,0,0,1,.36-.59,4.33,4.33,0,0,1,.56-.72,9.31,9.31,0,0,1,.84-.82,8.27,8.27,0,0,1,.72-.58c.32-.14.62-.26.9-.35a2.54,2.54,0,0,1,.87-.12,1.38,1.38,0,0,1,.71.21,6.26,6.26,0,0,1,.91.78.89.89,0,0,1,.2.55.78.78,0,0,1-.13.43,8.31,8.31,0,0,1-.48.83c-.22.33-.42.63-.62.89s-.34.39-.43.4a.69.69,0,0,1-.54.07.35.35,0,0,1-.27-.4c0-.1,0-.24,0-.41a2.52,2.52,0,0,1,.18-.49c.07-.14.14-.26.2-.36a.68.68,0,0,0,.12-.54c0-.17-.23-.25-.54-.23a1.86,1.86,0,0,0-.26.19c-.13.1-.26.22-.4.35a3.24,3.24,0,0,0-.37.38c-.11.12-.16.2-.16.24a4.1,4.1,0,0,1-.51.71,3.53,3.53,0,0,0-.27.4.65.65,0,0,0-.12.3q0,.09,0,.15a.09.09,0,0,1-.11.06,3.44,3.44,0,0,1-.36.72,3,3,0,0,1-.19.4,1.24,1.24,0,0,1-.2.26l0,0c-.14.33-.25.57-.33.75a1.19,1.19,0,0,0-.12.29c0,.06.08.09.25.1a3,3,0,0,0,.63-.05l.72-.13a1.52,1.52,0,0,1,.44-.07,1.25,1.25,0,0,1,.4.1.79.79,0,0,1,.27.39,3.58,3.58,0,0,1,.14.54.72.72,0,0,1,0,.4c0,.06-.18.13-.49.22a6.18,6.18,0,0,1-.93.2l-.88.15c-.33.05-.61.11-.86.16s-.38.11-.4.17a.17.17,0,0,0-.14.1.41.41,0,0,0-.06.19.83.83,0,0,1-.13.45l-.16.53-.23.85-.2.86a3.49,3.49,0,0,0-.1.52.7.7,0,0,0-.17.38,3,3,0,0,0,0,.4.72.72,0,0,0-.12.3,1.2,1.2,0,0,0,0,.23v.09a.35.35,0,0,1,0,.13c0,.14,0,.33-.07.56s-.05.48-.06.71l-.09.62a1.92,1.92,0,0,1-.1.48A.61.61,0,0,1,583.44,418.92Z"/><path class="cls-2" d="M604.33,416.61a2,2,0,0,1-.46-.3,2,2,0,0,1-.55-.74,2.56,2.56,0,0,1-.18-1.24,4,4,0,0,1,.14-.91c.05-.18,0-.28-.07-.3a1,1,0,0,0-.44.18,9.09,9.09,0,0,0-.87.66c-.35.3-.79.7-1.3,1.2-.18.14-.37.31-.59.51a2.37,2.37,0,0,1-.64.44.46.46,0,0,1-.55-.09l-.21-.2a1.1,1.1,0,0,1-.25-.36.56.56,0,0,1-.05-.37l.67-1.66c.19-.36.32-.63.39-.8a.9.9,0,0,0,.1-.32c0-.05,0-.06-.12-.05a.9.9,0,0,0-.37.21,1.81,1.81,0,0,0-.34.32c-.06,0-.13.06-.23.17a4,4,0,0,1-.28.29c-.09.08-.25.24-.47.47s-.47.47-.73.71-.41.39-.67.67l-.68.75q-.29.33-.36.33a1.25,1.25,0,0,1-1.09-.88,1.53,1.53,0,0,1,0-.88c.08-.42.25-1.09.49-2,.06-.22.12-.4.18-.56l.18-.47c.07-.15.14-.33.23-.53s.2-.44.34-.72a1.34,1.34,0,0,0,.11-.57c0-.18,0-.33,0-.44a.68.68,0,0,1,.23-.51,1,1,0,0,1,.47-.25.74.74,0,0,1,.41,0,1,1,0,0,1,.81.47,1.73,1.73,0,0,1,.21.72,1.36,1.36,0,0,1-.11.58l-.19.42-.26.57-.34.72a1,1,0,0,0-.12.29.78.78,0,0,0,0,.14c0,.05.08,0,.2-.05l.43-.34c.17-.15.33-.27.48-.38s.55-.42.86-.63a8.83,8.83,0,0,1,.9-.56,3.41,3.41,0,0,1,.72-.32,1.39,1.39,0,0,1,.67.4,1.91,1.91,0,0,1,.38.53,1,1,0,0,1,0,.58,4.08,4.08,0,0,0-.14.48c0,.05,0,.16-.1.32s-.12.37-.22.64c.18-.17.34-.31.49-.43s.3-.22.45-.32a7.64,7.64,0,0,1,1.75-1,.91.91,0,0,1,1.08.42,1.14,1.14,0,0,1,.31.67,6.11,6.11,0,0,1,0,1.1q0,.28,0,.63a5,5,0,0,0,.06.61,1,1,0,0,0,.09.32.49.49,0,0,0,.23.17,2.84,2.84,0,0,0,.32.14.68.68,0,0,1,0,1.16,1.73,1.73,0,0,1-.69.21A4.33,4.33,0,0,1,604.33,416.61Z"/><path class="cls-2" d="M606.61,416.85a1.13,1.13,0,0,1-.23-.53,2.23,2.23,0,0,1,0-.68,1.47,1.47,0,0,1,.12-.51.58.58,0,0,1,.07-.26.28.28,0,0,0,0-.19.68.68,0,0,1,0-.3l.15-.4c.11-.23.24-.52.38-.88s.29-.73.43-1.11.27-.7.37-1,.15-.44.17-.5.12-.26.35-.27.38,0,.62.24a2.85,2.85,0,0,1,.56.67.49.49,0,0,1,.11.46,3.54,3.54,0,0,1-.31.79,4,4,0,0,0-.23.56c-.09.27-.15.48-.19.65s-.13.28-.22.48-.17.4-.23.59a1.73,1.73,0,0,0-.1.39c0,.2-.08.39-.13.59a1.38,1.38,0,0,1-.2.47c-.15.59-.39.92-.72,1A.77.77,0,0,1,606.61,416.85Zm2.67-8.57a1.18,1.18,0,0,1-.34-.43,1.22,1.22,0,0,1-.11-.45c0-.13,0-.21,0-.23a2.3,2.3,0,0,0,.41-.62,4.55,4.55,0,0,1,.38-.69,1.29,1.29,0,0,1,.13-.18.29.29,0,0,1,.16-.14.77.77,0,0,1,.73,0,1.44,1.44,0,0,1,.66.57,1.46,1.46,0,0,1,.08.85,2,2,0,0,1-.5.88,1.4,1.4,0,0,1-.84.52A.92.92,0,0,1,609.28,408.28Z"/><path class="cls-2" d="M611.66,417.65a.72.72,0,0,1-.73-.25,2,2,0,0,1-.41-1,3.49,3.49,0,0,1,.1-1.45,3.9,3.9,0,0,0,.19-.5,1.41,1.41,0,0,0,.08-.39c0-.15.1-.36.2-.64s.2-.56.32-.86.22-.56.32-.8.17-.37.2-.43.11-.05.16-.15a.63.63,0,0,0,.07-.3,1.59,1.59,0,0,1,.09-.38,1,1,0,0,1,.18-.3.6.6,0,0,1,.06-.24,1.11,1.11,0,0,0,.07-.23.29.29,0,0,1,.06-.17.58.58,0,0,0,.06-.17c.1-.18.25-.48.43-.88l.6-1.35q.31-.74.6-1.47c.2-.48.35-.89.48-1.22a2.9,2.9,0,0,0,.18-.61.51.51,0,0,1,.14-.32.41.41,0,0,1,.31-.14.58.58,0,0,1,.31-.08l.32,0,.33.36a2.72,2.72,0,0,1,.32.35.66.66,0,0,1,.15.46,1.91,1.91,0,0,1-.1.54,5.33,5.33,0,0,1-.3.69c-.14.29-.36.72-.65,1.28-.13.29-.26.55-.4.8a1.56,1.56,0,0,0-.21.46.63.63,0,0,1-.09.25l-.18.43c-.06.11-.15.28-.25.49l-.35.7-.29.64a1.54,1.54,0,0,0-.12.31.88.88,0,0,1,0,.17.28.28,0,0,1-.1.17c-.06,0-.1.08-.12.23a5.37,5.37,0,0,1-.39,1.13q-.39,1.19-.72,2.16a6.16,6.16,0,0,0-.36,1.59,1.64,1.64,0,0,1-.19.79A.89.89,0,0,1,611.66,417.65Z"/><path class="cls-2" d="M615.21,417.62a1.34,1.34,0,0,1-.44-.38,3.43,3.43,0,0,1-.47-.66,1.3,1.3,0,0,1-.2-.6,8.16,8.16,0,0,0,.33-.84c.14-.39.29-.84.47-1.34a1.74,1.74,0,0,0,.29-.54c.08-.2.15-.39.21-.56s.27-.55.42-.87.31-.66.46-1,.29-.64.42-.89c.22-.43.4-.8.55-1.11l.45-.95c.15-.31.31-.66.48-1s.45-.87.65-1.3.37-.82.52-1.16a5.63,5.63,0,0,0,.28-.73.29.29,0,0,1,0-.24.28.28,0,0,1,.18-.09.85.85,0,0,1,.34-.08h.33a.94.94,0,0,1,.51.45,1.24,1.24,0,0,1,.25.65,4.82,4.82,0,0,1-.39,1.27,22.84,22.84,0,0,1-1,2.17q-.81,1.59-1.23,2.46c-.27.58-.46,1-.55,1.23a1.2,1.2,0,0,0-.13.47,2.82,2.82,0,0,0,.7-.34,5.1,5.1,0,0,0,.56-.36c.21-.15.41-.29.61-.41a1.67,1.67,0,0,1,.47-.22l.31-.21.38-.22c.28-.19.5-.25.65-.17a1.11,1.11,0,0,1,.42.39.68.68,0,0,1,.16.6c0,.2-.28.46-.71.78s-.67.42-1,.62l-1,.51a6.36,6.36,0,0,0-.66.36c.25.39.42.67.53.85s.24.53.4.89.28.61.36.76a1.23,1.23,0,0,0,.47.47,1,1,0,0,0,.74,0,.89.89,0,0,1,.55,0,1,1,0,0,1,.37.32.76.76,0,0,1,.07.35c0,.12-.1.25-.29.4a11.33,11.33,0,0,1-1.21.66,1,1,0,0,1-1.09-.1,7.05,7.05,0,0,1-.82-.82c-.25-.31-.54-.68-.85-1.13a1.4,1.4,0,0,0-.12-.37,1.19,1.19,0,0,0-.16-.33,3.45,3.45,0,0,0-.26-.46,2.3,2.3,0,0,0-.14-.4.4.4,0,0,0-.25-.18,1,1,0,0,0-.2.21c-.07.1-.15.22-.23.36s-.19.42-.28.62a4.73,4.73,0,0,0-.25.66,5.57,5.57,0,0,0-.14.85.7.7,0,0,1-.21.5A.67.67,0,0,1,615.21,417.62Z"/><path class="cls-2" d="M623.68,417.76a2.2,2.2,0,0,1-.77.13,1.19,1.19,0,0,1-.65-.32.82.82,0,0,1-.26-.88,1.68,1.68,0,0,1,.8-.82,1.47,1.47,0,0,1,.65-.27,1.68,1.68,0,0,1,.61.18c.47.33.68.67.61,1S624.26,417.49,623.68,417.76Zm1.27-3.3a.88.88,0,0,1-.93-.55,3.27,3.27,0,0,1,.13-2.17c.09-.16.17-.33.24-.49a1.77,1.77,0,0,0,.1-.4c.06-.19.15-.4.25-.65s.21-.48.32-.7.19-.36.23-.43.13-.05.19-.15a.53.53,0,0,0,.11-.3,1.59,1.59,0,0,1,.09-.38,1,1,0,0,1,.18-.3.4.4,0,0,1,.09-.23.48.48,0,0,0,.1-.21.2.2,0,0,1,.06-.15.25.25,0,0,0,.06-.15c.14-.23.32-.56.54-1s.46-.91.69-1.41.42-.93.58-1.32a2.85,2.85,0,0,0,.24-.7,1.83,1.83,0,0,1,.14-.32.22.22,0,0,1,.27-.1.48.48,0,0,1,.26-.06h.26a1.77,1.77,0,0,1,.53.36.62.62,0,0,1,.18.42v.52a2.38,2.38,0,0,1-.34.92l-.67,1.12-.46.76a1.76,1.76,0,0,0-.22.44.54.54,0,0,1-.1.26q-.09.17-.21.42a3.94,3.94,0,0,0-.27.51c-.08.2-.16.38-.22.54a1.18,1.18,0,0,0-.1.31l-.06.17a.52.52,0,0,1-.13.17c-.05,0-.09.08-.11.24a2.52,2.52,0,0,1-.12.39,4.13,4.13,0,0,1-.34.73c-.3.75-.52,1.35-.65,1.8a8.29,8.29,0,0,0-.27,1.15,1.09,1.09,0,0,1-.26.69A1.84,1.84,0,0,1,625,414.46Z"/></g></g></svg>